<svg t="1584431314522" class="icon" viewBox="0 0 1024 1024" version="1.1" xmlns="http://www.w3.org/2000/svg" p-id="4270" width="200" height="200"><path d="M953.788 435.494c2.006 39.591 4.199 79.175 5.974 118.78 4.816 107.658-52.151 179.46-160.031 193.845-43.828 5.844-89.206 0.806-133.847-0.439-29.262-0.819-58.725-1.941-87.63-6.151-32.617-4.756-60.358 3.694-88.508 19.46-77.395 43.34-155.422 85.602-234.116 126.529-14.59 7.59-33.461 6.954-50.356 10.111 6.61-14.551 11.427-30.303 20.195-43.418 21.534-32.208 45.142-63.027 67.429-94.747 15.657-22.292 10.118-34.759-16.911-38.046-25.633-3.119-51.636-3.756-77.062-7.963-90.625-14.987-142.286-83.314-134.362-174.16 6.297-72.097 13.908-144.267 15.612-216.534 1.673-70.87 64.371-143.55 143.707-152.707 94.083-10.86 188.641-17.749 283.033-25.873 73.823-6.354 147.679-12.367 221.578-17.785 70.27-5.15 135.626 8.943 181.991 65.583 17.91 21.89 29.989 52.752 33.892 81.023 7.397 53.586 6.979 108.254 9.809 162.473-0.132 0.007-0.266 0.013-0.394 0.021zM585.066 419.766c0.025-35.178-30.448-63.745-67.514-63.282-35.146 0.437-64.326 29.847-63.73 64.242 0.605 34.779 29.575 61.564 66.215 61.23 36.955-0.334 65.003-27.159 65.028-62.19zM734.435 481.916c37.207 0.438 66.165-25.751 66.913-60.519 0.748-34.644-30-64.724-66.409-64.954-35.372-0.228-64.957 28.319-65.124 62.839-0.177 35.397 27.477 62.203 64.619 62.636zM302.672 481.807c37.035-0.083 66.084-27.021 66.499-61.666 0.414-34.404-28.939-62.986-65.136-63.426-35.791-0.434-65.882 27.707-66.509 62.204-0.637 34.345 29.02 62.969 65.146 62.889z" p-id="4271"></path></svg>
