<svg t="1584431386264" class="icon" viewBox="0 0 1024 1024" version="1.1" xmlns="http://www.w3.org/2000/svg" p-id="4708" width="200" height="200"><path d="M573.415411 1024H197.60227A153.790002 153.790002 0 0 1 43.979917 870.377647V153.622353A153.790002 153.790002 0 0 1 197.60227 0h460.811177a153.790002 153.790002 0 0 1 153.622353 153.622353v369.163065a270.026632 270.026632 0 0 0-76.783235-10.785418 281.538529 281.538529 0 0 0-162.060685 511.888234zM176.254966 358.377647a38.391618 38.391618 0 0 0 0 76.783235h204.811177a38.391618 38.391618 0 0 0 0-76.783235z m0-166.363676a38.391618 38.391618 0 0 0 0 76.783235h512a38.391618 38.391618 0 0 0 0-76.783235zM756.488103 1005.89391a223.53198 223.53198 0 1 1 223.53198-223.53198 223.53198 223.53198 0 0 1-223.53198 223.53198z m-121.769046-189.666885a19.056101 19.056101 0 1 0 0 38.112202h57.056538v38.503384a19.056101 19.056101 0 1 0 38.112202 0v-38.503384H787.22375a24.700284 24.700284 0 0 0 2.738267 0h27.941498l-10.561887 10.561886a19.056101 19.056101 0 0 0 26.935604 26.935604l42.694608-42.694608a19.335516 19.335516 0 0 0 5.5883-13.691334v-1.173543a3524.48461 3524.48461 0 0 0 0-0.894128V832.656625a0.614713 0.614713 0 0 0 0-0.391181 4.638289 4.638289 0 0 0 0-0.55883v-0.614713a1.67649 1.67649 0 0 0 0-0.279415v-2.961798a1.844139 1.844139 0 0 1 0-0.447064 1.341192 1.341192 0 0 0 0-0.391181v-2.402969L882.224842 824.106527v-0.335298l-0.335298-0.391181v-0.335298l-0.391181-0.447064-0.391181-0.391181-42.638725-42.806374a19.056101 19.056101 0 0 0-26.935604 26.991487l10.226588 10.170705h-87.736302v-30.847414h53.200611a19.056101 19.056101 0 0 0 0-38.112202h-38.223968l53.312377-71.418468a19.000218 19.000218 0 0 0-15.144292-30.456232 19.279633 19.279633 0 0 0-15.31194 7.65597l-60.856582 81.197992-61.02423-81.309758a19.056101 19.056101 0 0 0-30.512116 22.912028l53.53591 71.362585h-38.223969a19.056101 19.056101 0 1 0 0 38.112202h57.056538v30.567999z" p-id="4709"></path></svg>
